<mxfile host="app.diagrams.net" agent="Mozilla/5.0 (Windows NT 10.0; Win64; x64) AppleWebKit/537.36 (KHTML, like Gecko) Chrome/136.0.0.0 Safari/537.36" version="27.1.3">
  <diagram name="Trang-1" id="rcItPHVDbqnt85SRIA_v">
    <mxGraphModel dx="5124" dy="2108" grid="1" gridSize="10" guides="0" tooltips="1" connect="1" arrows="1" fold="1" page="1" pageScale="1" pageWidth="4800" pageHeight="4336" math="0" shadow="0">
      <root>
        <mxCell id="0" />
        <mxCell id="1" parent="0" />
        <mxCell id="wpNzQlKAcKia0D_ap1BT-6" value="&lt;span style=&quot;background-color: transparent; color: light-dark(rgb(36, 136, 20), rgb(85, 171, 71));&quot;&gt;Private&lt;/span&gt;&lt;span style=&quot;background-color: transparent; color: light-dark(rgb(36, 136, 20), rgb(85, 171, 71));&quot;&gt;&amp;nbsp;subnet&lt;/span&gt;" style="points=[[0,0],[0.25,0],[0.5,0],[0.75,0],[1,0],[1,0.25],[1,0.5],[1,0.75],[1,1],[0.75,1],[0.5,1],[0.25,1],[0,1],[0,0.75],[0,0.5],[0,0.25]];outlineConnect=0;gradientColor=none;html=1;whiteSpace=wrap;fontSize=12;fontStyle=0;container=1;pointerEvents=0;collapsible=0;recursiveResize=0;shape=mxgraph.aws4.group;grIcon=mxgraph.aws4.group_security_group;grStroke=0;strokeColor=#7AA116;fillColor=#F2F6E8;verticalAlign=top;align=left;spacingLeft=30;fontColor=#248814;dashed=0;" parent="1" vertex="1">
          <mxGeometry x="2010" y="1360" width="200" height="200" as="geometry" />
        </mxCell>
        <mxCell id="wAdAc6-QEUFjlLHtvM_q-1" value="Sigapore" style="points=[[0,0],[0.25,0],[0.5,0],[0.75,0],[1,0],[1,0.25],[1,0.5],[1,0.75],[1,1],[0.75,1],[0.5,1],[0.25,1],[0,1],[0,0.75],[0,0.5],[0,0.25]];outlineConnect=0;gradientColor=none;html=1;whiteSpace=wrap;fontSize=12;fontStyle=0;container=1;pointerEvents=0;collapsible=0;recursiveResize=0;shape=mxgraph.aws4.group;grIcon=mxgraph.aws4.group_region;strokeColor=#00A4A6;fillColor=none;verticalAlign=top;align=left;spacingLeft=30;fontColor=#147EBA;dashed=1;" parent="1" vertex="1">
          <mxGeometry x="240" y="670" width="2510" height="1930" as="geometry" />
        </mxCell>
        <mxCell id="wAdAc6-QEUFjlLHtvM_q-3" value="VPC" style="shape=mxgraph.ibm.box;prType=vpc;fontStyle=0;verticalAlign=top;align=left;spacingLeft=32;spacingTop=4;fillColor=none;rounded=0;whiteSpace=wrap;html=1;strokeColor=#4376BB;strokeWidth=2;dashed=0;container=1;spacing=-4;collapsible=0;expand=0;recursiveResize=0;fontSize=20;" parent="wAdAc6-QEUFjlLHtvM_q-1" vertex="1">
          <mxGeometry x="1330" y="510" width="980" height="660" as="geometry" />
        </mxCell>
        <mxCell id="wAdAc6-QEUFjlLHtvM_q-4" value="Firewall&lt;span style=&quot;background-color: transparent; color: light-dark(rgb(20, 126, 186), rgb(69, 160, 212));&quot;&gt;&amp;nbsp;subnet&lt;/span&gt;" style="points=[[0,0],[0.25,0],[0.5,0],[0.75,0],[1,0],[1,0.25],[1,0.5],[1,0.75],[1,1],[0.75,1],[0.5,1],[0.25,1],[0,1],[0,0.75],[0,0.5],[0,0.25]];outlineConnect=0;gradientColor=none;html=1;whiteSpace=wrap;fontSize=12;fontStyle=0;container=1;pointerEvents=0;collapsible=0;recursiveResize=0;shape=mxgraph.aws4.group;grIcon=mxgraph.aws4.group_security_group;grStroke=0;strokeColor=#00A4A6;fillColor=#E6F6F7;verticalAlign=top;align=left;spacingLeft=30;fontColor=#147EBA;dashed=0;" parent="wAdAc6-QEUFjlLHtvM_q-3" vertex="1">
          <mxGeometry x="100" y="180" width="220" height="210" as="geometry" />
        </mxCell>
        <mxCell id="wAdAc6-QEUFjlLHtvM_q-6" value="&lt;span style=&quot;background-color: transparent; color: light-dark(rgb(36, 136, 20), rgb(85, 171, 71));&quot;&gt;Private&lt;/span&gt;&lt;span style=&quot;background-color: transparent; color: light-dark(rgb(36, 136, 20), rgb(85, 171, 71));&quot;&gt;&amp;nbsp;subnet&lt;/span&gt;" style="points=[[0,0],[0.25,0],[0.5,0],[0.75,0],[1,0],[1,0.25],[1,0.5],[1,0.75],[1,1],[0.75,1],[0.5,1],[0.25,1],[0,1],[0,0.75],[0,0.5],[0,0.25]];outlineConnect=0;gradientColor=none;html=1;whiteSpace=wrap;fontSize=12;fontStyle=0;container=1;pointerEvents=0;collapsible=0;recursiveResize=0;shape=mxgraph.aws4.group;grIcon=mxgraph.aws4.group_security_group;grStroke=0;strokeColor=#7AA116;fillColor=#F2F6E8;verticalAlign=top;align=left;spacingLeft=30;fontColor=#248814;dashed=0;" parent="wAdAc6-QEUFjlLHtvM_q-3" vertex="1">
          <mxGeometry x="670" y="190" width="220" height="210" as="geometry" />
        </mxCell>
        <mxCell id="wAdAc6-QEUFjlLHtvM_q-8" value="" style="line;strokeWidth=2;direction=south;html=1;fillColor=light-dark(#e51400, #e60000);fontColor=#ffffff;strokeColor=#B20000;" parent="wAdAc6-QEUFjlLHtvM_q-3" vertex="1">
          <mxGeometry x="102.5" y="-80" width="180" height="270" as="geometry" />
        </mxCell>
        <mxCell id="wAdAc6-QEUFjlLHtvM_q-7" value="&lt;b style=&quot;&quot;&gt;&lt;font style=&quot;font-size: 20px;&quot;&gt;Flask-EC2&lt;/font&gt;&lt;/b&gt;" style="outlineConnect=0;dashed=0;verticalLabelPosition=bottom;verticalAlign=top;align=center;html=1;shape=mxgraph.aws3.ec2;fillColor=#F58534;gradientColor=none;" parent="wAdAc6-QEUFjlLHtvM_q-3" vertex="1">
          <mxGeometry x="740" y="259" width="90" height="80" as="geometry" />
        </mxCell>
        <mxCell id="wAdAc6-QEUFjlLHtvM_q-39" value="&lt;font style=&quot;font-size: 16px;&quot;&gt;&lt;b&gt;S3 Endpoint&lt;/b&gt;&lt;/font&gt;" style="sketch=0;outlineConnect=0;fontColor=#232F3E;gradientColor=none;fillColor=#8C4FFF;strokeColor=none;dashed=0;verticalLabelPosition=bottom;verticalAlign=top;align=center;html=1;fontSize=12;fontStyle=0;aspect=fixed;pointerEvents=1;shape=mxgraph.aws4.endpoint;" parent="wAdAc6-QEUFjlLHtvM_q-3" vertex="1">
          <mxGeometry x="500" y="630" width="90" height="90" as="geometry" />
        </mxCell>
        <mxCell id="wAdAc6-QEUFjlLHtvM_q-5" value="&lt;font style=&quot;font-size: 16px;&quot;&gt;&lt;b&gt;AWS Network&amp;nbsp;&lt;/b&gt;&lt;/font&gt;&lt;div&gt;&lt;font style=&quot;font-size: 16px;&quot;&gt;&lt;b&gt;Firewall Enpoint&lt;/b&gt;&lt;/font&gt;&lt;/div&gt;" style="sketch=0;outlineConnect=0;fontColor=#232F3E;gradientColor=none;fillColor=#DD344C;strokeColor=none;dashed=0;verticalLabelPosition=bottom;verticalAlign=top;align=center;html=1;fontSize=12;fontStyle=0;aspect=fixed;pointerEvents=1;shape=mxgraph.aws4.network_firewall_endpoints;" parent="wAdAc6-QEUFjlLHtvM_q-3" vertex="1">
          <mxGeometry x="160" y="230" width="89" height="89" as="geometry" />
        </mxCell>
        <mxCell id="wpNzQlKAcKia0D_ap1BT-7" value="&lt;b style=&quot;&quot;&gt;&lt;font style=&quot;font-size: 20px;&quot;&gt;Proxy-EC2&lt;/font&gt;&lt;/b&gt;&lt;div&gt;&lt;span style=&quot;font-size: 16px;&quot;&gt;&lt;b&gt;&lt;br&gt;&lt;/b&gt;&lt;/span&gt;&lt;/div&gt;" style="outlineConnect=0;dashed=0;verticalLabelPosition=bottom;verticalAlign=top;align=center;html=1;shape=mxgraph.aws3.ec2;fillColor=#F58534;gradientColor=none;" parent="wAdAc6-QEUFjlLHtvM_q-3" vertex="1">
          <mxGeometry x="460" y="250" width="90" height="80" as="geometry" />
        </mxCell>
        <mxCell id="wpNzQlKAcKia0D_ap1BT-9" value="Availability Zone" style="fillColor=none;strokeColor=#147EBA;dashed=1;verticalAlign=top;fontStyle=0;fontColor=#147EBA;whiteSpace=wrap;html=1;" parent="wAdAc6-QEUFjlLHtvM_q-3" vertex="1">
          <mxGeometry x="-40" y="130" width="1060" height="370" as="geometry" />
        </mxCell>
        <mxCell id="wAdAc6-QEUFjlLHtvM_q-11" value="&lt;font style=&quot;font-size: 16px;&quot;&gt;&lt;b style=&quot;&quot;&gt;Firewall Policy&lt;/b&gt;&lt;/font&gt;" style="image;aspect=fixed;html=1;points=[];align=center;fontSize=12;image=img/lib/azure2/networking/Azure_Firewall_Policy.svg;" parent="wAdAc6-QEUFjlLHtvM_q-1" vertex="1">
          <mxGeometry x="1280" y="379" width="96.51" height="70" as="geometry" />
        </mxCell>
        <mxCell id="wAdAc6-QEUFjlLHtvM_q-12" value="&lt;font style=&quot;font-size: 16px;&quot;&gt;&lt;b&gt;Amazon&lt;/b&gt;&lt;/font&gt;&lt;div&gt;&lt;font style=&quot;font-size: 16px;&quot;&gt;&lt;b&gt;&amp;nbsp;EventBridge&lt;/b&gt;&lt;/font&gt;&lt;/div&gt;" style="sketch=0;points=[[0,0,0],[0.25,0,0],[0.5,0,0],[0.75,0,0],[1,0,0],[0,1,0],[0.25,1,0],[0.5,1,0],[0.75,1,0],[1,1,0],[0,0.25,0],[0,0.5,0],[0,0.75,0],[1,0.25,0],[1,0.5,0],[1,0.75,0]];outlineConnect=0;fontColor=#232F3E;fillColor=#E7157B;strokeColor=#ffffff;dashed=0;verticalLabelPosition=bottom;verticalAlign=top;align=center;html=1;fontSize=12;fontStyle=0;aspect=fixed;shape=mxgraph.aws4.resourceIcon;resIcon=mxgraph.aws4.eventbridge;" parent="wAdAc6-QEUFjlLHtvM_q-1" vertex="1">
          <mxGeometry x="718" y="133" width="78" height="78" as="geometry" />
        </mxCell>
        <mxCell id="wAdAc6-QEUFjlLHtvM_q-13" value="&lt;font style=&quot;font-size: 16px;&quot;&gt;&lt;b&gt;Amazon&lt;/b&gt;&lt;/font&gt;&lt;div&gt;&lt;font style=&quot;font-size: 16px;&quot;&gt;&lt;b&gt;&amp;nbsp;Guardduty&lt;/b&gt;&lt;/font&gt;&lt;/div&gt;" style="sketch=0;points=[[0,0,0],[0.25,0,0],[0.5,0,0],[0.75,0,0],[1,0,0],[0,1,0],[0.25,1,0],[0.5,1,0],[0.75,1,0],[1,1,0],[0,0.25,0],[0,0.5,0],[0,0.75,0],[1,0.25,0],[1,0.5,0],[1,0.75,0]];outlineConnect=0;fontColor=#232F3E;fillColor=#DD344C;strokeColor=#ffffff;dashed=0;verticalLabelPosition=bottom;verticalAlign=top;align=center;html=1;fontSize=12;fontStyle=0;aspect=fixed;shape=mxgraph.aws4.resourceIcon;resIcon=mxgraph.aws4.guardduty;" parent="wAdAc6-QEUFjlLHtvM_q-1" vertex="1">
          <mxGeometry x="560" y="133" width="78" height="78" as="geometry" />
        </mxCell>
        <mxCell id="wAdAc6-QEUFjlLHtvM_q-14" value="" style="shape=singleArrow;whiteSpace=wrap;html=1;" parent="wAdAc6-QEUFjlLHtvM_q-1" vertex="1">
          <mxGeometry x="638" y="147" width="80" height="50" as="geometry" />
        </mxCell>
        <mxCell id="wAdAc6-QEUFjlLHtvM_q-15" value="" style="shape=singleArrow;whiteSpace=wrap;html=1;" parent="wAdAc6-QEUFjlLHtvM_q-1" vertex="1">
          <mxGeometry x="796" y="144" width="80" height="50" as="geometry" />
        </mxCell>
        <mxCell id="wAdAc6-QEUFjlLHtvM_q-16" value="&lt;div&gt;&lt;b&gt;AWS Lambda &amp;amp; SNS Workflow&lt;/b&gt;&lt;/div&gt;" style="sketch=0;outlineConnect=0;gradientColor=none;html=1;whiteSpace=wrap;fontSize=12;fontStyle=0;shape=mxgraph.aws4.group;grIcon=mxgraph.aws4.group_aws_step_functions_workflow;strokeColor=#545B64;fillColor=none;verticalAlign=top;align=left;spacingLeft=30;fontColor=#545B64;dashed=0;" parent="wAdAc6-QEUFjlLHtvM_q-1" vertex="1">
          <mxGeometry x="876" y="40" width="952" height="271" as="geometry" />
        </mxCell>
        <mxCell id="wAdAc6-QEUFjlLHtvM_q-17" value="&lt;font style=&quot;font-size: 16px;&quot;&gt;&lt;b&gt;AWS&amp;nbsp;&lt;/b&gt;&lt;/font&gt;&lt;b style=&quot;font-size: 16px; background-color: transparent; color: light-dark(rgb(35, 47, 62), rgb(189, 199, 212));&quot;&gt;Network&amp;nbsp;&lt;/b&gt;&lt;div&gt;&lt;font style=&quot;font-size: 16px;&quot;&gt;&lt;b&gt;Firewall&lt;/b&gt;&lt;/font&gt;&lt;/div&gt;" style="sketch=0;points=[[0,0,0],[0.25,0,0],[0.5,0,0],[0.75,0,0],[1,0,0],[0,1,0],[0.25,1,0],[0.5,1,0],[0.75,1,0],[1,1,0],[0,0.25,0],[0,0.5,0],[0,0.75,0],[1,0.25,0],[1,0.5,0],[1,0.75,0]];outlineConnect=0;fontColor=#232F3E;fillColor=#DD344C;strokeColor=#ffffff;dashed=0;verticalLabelPosition=bottom;verticalAlign=top;align=center;html=1;fontSize=12;fontStyle=0;aspect=fixed;shape=mxgraph.aws4.resourceIcon;resIcon=mxgraph.aws4.network_firewall;" parent="wAdAc6-QEUFjlLHtvM_q-1" vertex="1">
          <mxGeometry x="1470" y="350" width="90" height="90" as="geometry" />
        </mxCell>
        <mxCell id="wAdAc6-QEUFjlLHtvM_q-18" value="" style="shape=singleArrow;whiteSpace=wrap;html=1;" parent="wAdAc6-QEUFjlLHtvM_q-1" vertex="1">
          <mxGeometry x="1380" y="389" width="80" height="50" as="geometry" />
        </mxCell>
        <mxCell id="wAdAc6-QEUFjlLHtvM_q-19" value="Internet" style="outlineConnect=0;dashed=0;verticalLabelPosition=bottom;verticalAlign=top;align=center;html=1;shape=mxgraph.aws3.internet;fillColor=#D2D3D3;gradientColor=none;" parent="wAdAc6-QEUFjlLHtvM_q-1" vertex="1">
          <mxGeometry x="-190" y="490" width="79.5" height="79.5" as="geometry" />
        </mxCell>
        <mxCell id="wAdAc6-QEUFjlLHtvM_q-20" value="&lt;font style=&quot;font-size: 20px;&quot;&gt;Start&lt;/font&gt;" style="ellipse;whiteSpace=wrap;html=1;" parent="wAdAc6-QEUFjlLHtvM_q-1" vertex="1">
          <mxGeometry x="928" y="147" width="80" height="60" as="geometry" />
        </mxCell>
        <mxCell id="wAdAc6-QEUFjlLHtvM_q-21" value="&lt;font style=&quot;font-size: 20px;&quot;&gt;&amp;nbsp; Record IP&lt;/font&gt;" style="rounded=0;whiteSpace=wrap;html=1;align=left;" parent="wAdAc6-QEUFjlLHtvM_q-1" vertex="1">
          <mxGeometry x="1058" y="133" width="170" height="89" as="geometry" />
        </mxCell>
        <mxCell id="wAdAc6-QEUFjlLHtvM_q-22" value="&lt;span style=&quot;font-size: 20px;&quot;&gt;&amp;nbsp;Block&amp;nbsp;&lt;/span&gt;&lt;span style=&quot;font-size: 20px; background-color: transparent; color: light-dark(rgb(0, 0, 0), rgb(255, 255, 255));&quot;&gt;traffic&lt;/span&gt;" style="rounded=0;whiteSpace=wrap;html=1;align=left;" parent="wAdAc6-QEUFjlLHtvM_q-1" vertex="1">
          <mxGeometry x="1268" y="133" width="170" height="89" as="geometry" />
        </mxCell>
        <mxCell id="wAdAc6-QEUFjlLHtvM_q-23" value="&lt;span style=&quot;font-size: 20px;&quot;&gt;Notify success&lt;/span&gt;&lt;div&gt;&lt;span style=&quot;font-size: 20px;&quot;&gt;via Email&lt;/span&gt;&lt;/div&gt;" style="rounded=0;whiteSpace=wrap;html=1;" parent="wAdAc6-QEUFjlLHtvM_q-1" vertex="1">
          <mxGeometry x="1488" y="133" width="170" height="89" as="geometry" />
        </mxCell>
        <mxCell id="wAdAc6-QEUFjlLHtvM_q-24" value="&lt;font style=&quot;font-size: 20px;&quot;&gt;End&lt;/font&gt;" style="ellipse;whiteSpace=wrap;html=1;" parent="wAdAc6-QEUFjlLHtvM_q-1" vertex="1">
          <mxGeometry x="1718" y="147" width="80" height="60" as="geometry" />
        </mxCell>
        <mxCell id="wAdAc6-QEUFjlLHtvM_q-25" value="" style="edgeStyle=orthogonalEdgeStyle;html=1;endArrow=block;elbow=vertical;startArrow=none;endFill=1;strokeColor=#545B64;rounded=0;entryX=0;entryY=0.5;entryDx=0;entryDy=0;exitX=1;exitY=0.5;exitDx=0;exitDy=0;" parent="wAdAc6-QEUFjlLHtvM_q-1" source="wAdAc6-QEUFjlLHtvM_q-20" target="wAdAc6-QEUFjlLHtvM_q-21" edge="1">
          <mxGeometry width="100" relative="1" as="geometry">
            <mxPoint x="1058" y="441" as="sourcePoint" />
            <mxPoint x="1158" y="441" as="targetPoint" />
          </mxGeometry>
        </mxCell>
        <mxCell id="wAdAc6-QEUFjlLHtvM_q-26" value="" style="edgeStyle=orthogonalEdgeStyle;html=1;endArrow=block;elbow=vertical;startArrow=none;endFill=1;strokeColor=#545B64;rounded=0;exitX=1;exitY=0.5;exitDx=0;exitDy=0;entryX=0;entryY=0.5;entryDx=0;entryDy=0;" parent="wAdAc6-QEUFjlLHtvM_q-1" source="wAdAc6-QEUFjlLHtvM_q-21" target="wAdAc6-QEUFjlLHtvM_q-22" edge="1">
          <mxGeometry width="100" relative="1" as="geometry">
            <mxPoint x="1048" y="351" as="sourcePoint" />
            <mxPoint x="1148" y="351" as="targetPoint" />
          </mxGeometry>
        </mxCell>
        <mxCell id="wAdAc6-QEUFjlLHtvM_q-27" value="" style="edgeStyle=orthogonalEdgeStyle;html=1;endArrow=block;elbow=vertical;startArrow=none;endFill=1;strokeColor=#545B64;rounded=0;exitX=1;exitY=0.5;exitDx=0;exitDy=0;entryX=0;entryY=0.5;entryDx=0;entryDy=0;" parent="wAdAc6-QEUFjlLHtvM_q-1" source="wAdAc6-QEUFjlLHtvM_q-22" target="wAdAc6-QEUFjlLHtvM_q-23" edge="1">
          <mxGeometry width="100" relative="1" as="geometry">
            <mxPoint x="1048" y="351" as="sourcePoint" />
            <mxPoint x="1148" y="351" as="targetPoint" />
          </mxGeometry>
        </mxCell>
        <mxCell id="wAdAc6-QEUFjlLHtvM_q-28" value="" style="edgeStyle=orthogonalEdgeStyle;html=1;endArrow=block;elbow=vertical;startArrow=none;endFill=1;strokeColor=#545B64;rounded=0;exitX=1;exitY=0.5;exitDx=0;exitDy=0;entryX=0;entryY=0.5;entryDx=0;entryDy=0;" parent="wAdAc6-QEUFjlLHtvM_q-1" source="wAdAc6-QEUFjlLHtvM_q-23" target="wAdAc6-QEUFjlLHtvM_q-24" edge="1">
          <mxGeometry width="100" relative="1" as="geometry">
            <mxPoint x="1048" y="351" as="sourcePoint" />
            <mxPoint x="1148" y="351" as="targetPoint" />
          </mxGeometry>
        </mxCell>
        <mxCell id="wAdAc6-QEUFjlLHtvM_q-29" value="" style="sketch=0;outlineConnect=0;fontColor=#232F3E;gradientColor=none;fillColor=#ED7100;strokeColor=none;dashed=0;verticalLabelPosition=bottom;verticalAlign=top;align=center;html=1;fontSize=12;fontStyle=0;aspect=fixed;pointerEvents=1;shape=mxgraph.aws4.lambda_function;" parent="wAdAc6-QEUFjlLHtvM_q-1" vertex="1">
          <mxGeometry x="1168" y="153.5" width="48" height="48" as="geometry" />
        </mxCell>
        <mxCell id="wAdAc6-QEUFjlLHtvM_q-30" value="" style="sketch=0;outlineConnect=0;fontColor=#232F3E;gradientColor=none;fillColor=#ED7100;strokeColor=none;dashed=0;verticalLabelPosition=bottom;verticalAlign=top;align=center;html=1;fontSize=12;fontStyle=0;aspect=fixed;pointerEvents=1;shape=mxgraph.aws4.lambda_function;" parent="wAdAc6-QEUFjlLHtvM_q-1" vertex="1">
          <mxGeometry x="1384.51" y="153.5" width="48" height="48" as="geometry" />
        </mxCell>
        <mxCell id="wAdAc6-QEUFjlLHtvM_q-31" value="" style="sketch=0;points=[[0,0,0],[0.25,0,0],[0.5,0,0],[0.75,0,0],[1,0,0],[0,1,0],[0.25,1,0],[0.5,1,0],[0.75,1,0],[1,1,0],[0,0.25,0],[0,0.5,0],[0,0.75,0],[1,0.25,0],[1,0.5,0],[1,0.75,0]];outlineConnect=0;fontColor=#232F3E;fillColor=#E7157B;strokeColor=#ffffff;dashed=0;verticalLabelPosition=bottom;verticalAlign=top;align=center;html=1;fontSize=12;fontStyle=0;aspect=fixed;shape=mxgraph.aws4.resourceIcon;resIcon=mxgraph.aws4.sns;" parent="wAdAc6-QEUFjlLHtvM_q-1" vertex="1">
          <mxGeometry x="1538" y="51" width="70" height="70" as="geometry" />
        </mxCell>
        <mxCell id="wAdAc6-QEUFjlLHtvM_q-32" value="" style="verticalLabelPosition=bottom;shadow=0;dashed=0;align=center;html=1;verticalAlign=top;strokeWidth=1;shape=mxgraph.mockup.markup.line;strokeColor=#999999;direction=north;" parent="wAdAc6-QEUFjlLHtvM_q-1" vertex="1">
          <mxGeometry x="1558" y="121" width="20" height="10" as="geometry" />
        </mxCell>
        <mxCell id="wAdAc6-QEUFjlLHtvM_q-33" value="" style="edgeStyle=orthogonalEdgeStyle;html=1;endArrow=block;elbow=vertical;startArrow=none;endFill=1;strokeColor=#545B64;rounded=0;exitX=0.25;exitY=1;exitDx=0;exitDy=0;entryX=0.446;entryY=0.079;entryDx=0;entryDy=0;entryPerimeter=0;" parent="wAdAc6-QEUFjlLHtvM_q-1" source="wAdAc6-QEUFjlLHtvM_q-22" target="wAdAc6-QEUFjlLHtvM_q-11" edge="1">
          <mxGeometry width="100" relative="1" as="geometry">
            <mxPoint x="1048" y="451" as="sourcePoint" />
            <mxPoint x="1148" y="451" as="targetPoint" />
          </mxGeometry>
        </mxCell>
        <mxCell id="wAdAc6-QEUFjlLHtvM_q-34" value="&lt;b&gt;&lt;font style=&quot;font-size: 16px;&quot;&gt;S3&lt;/font&gt;&lt;/b&gt;" style="sketch=0;points=[[0,0,0],[0.25,0,0],[0.5,0,0],[0.75,0,0],[1,0,0],[0,1,0],[0.25,1,0],[0.5,1,0],[0.75,1,0],[1,1,0],[0,0.25,0],[0,0.5,0],[0,0.75,0],[1,0.25,0],[1,0.5,0],[1,0.75,0]];outlineConnect=0;fontColor=#232F3E;fillColor=#7AA116;strokeColor=#ffffff;dashed=0;verticalLabelPosition=bottom;verticalAlign=top;align=center;html=1;fontSize=12;fontStyle=0;aspect=fixed;shape=mxgraph.aws4.resourceIcon;resIcon=mxgraph.aws4.s3;" parent="wAdAc6-QEUFjlLHtvM_q-1" vertex="1">
          <mxGeometry x="2190" y="1260" width="120" height="120" as="geometry" />
        </mxCell>
        <mxCell id="wAdAc6-QEUFjlLHtvM_q-35" value="" style="edgeStyle=orthogonalEdgeStyle;html=1;endArrow=block;elbow=vertical;startArrow=none;endFill=1;strokeColor=#545B64;rounded=0;exitX=0.457;exitY=1.039;exitDx=0;exitDy=0;exitPerimeter=0;entryX=0.5;entryY=0;entryDx=0;entryDy=0;entryPerimeter=0;" parent="wAdAc6-QEUFjlLHtvM_q-1" source="wAdAc6-QEUFjlLHtvM_q-39" target="wAdAc6-QEUFjlLHtvM_q-34" edge="1">
          <mxGeometry width="100" relative="1" as="geometry">
            <mxPoint x="1368" y="561" as="sourcePoint" />
            <mxPoint x="2110" y="1315" as="targetPoint" />
          </mxGeometry>
        </mxCell>
        <mxCell id="wAdAc6-QEUFjlLHtvM_q-36" value="" style="sketch=0;outlineConnect=0;fontColor=#232F3E;gradientColor=none;fillColor=#8C4FFF;strokeColor=none;dashed=0;verticalLabelPosition=bottom;verticalAlign=top;align=center;html=1;fontSize=12;fontStyle=0;aspect=fixed;pointerEvents=1;shape=mxgraph.aws4.internet_gateway;" parent="wAdAc6-QEUFjlLHtvM_q-1" vertex="1">
          <mxGeometry x="918" y="641" width="130" height="130" as="geometry" />
        </mxCell>
        <mxCell id="wAdAc6-QEUFjlLHtvM_q-37" value="" style="edgeStyle=orthogonalEdgeStyle;html=1;endArrow=block;elbow=vertical;startArrow=none;endFill=1;strokeColor=#545B64;rounded=0;exitX=-0.005;exitY=0.518;exitDx=0;exitDy=0;exitPerimeter=0;entryX=1;entryY=0.47;entryDx=0;entryDy=0;entryPerimeter=0;" parent="wAdAc6-QEUFjlLHtvM_q-1" source="wAdAc6-QEUFjlLHtvM_q-3" target="wAdAc6-QEUFjlLHtvM_q-36" edge="1">
          <mxGeometry width="100" relative="1" as="geometry">
            <mxPoint x="1605" y="1017" as="sourcePoint" />
            <mxPoint x="918" y="848" as="targetPoint" />
            <Array as="points" />
          </mxGeometry>
        </mxCell>
        <mxCell id="wAdAc6-QEUFjlLHtvM_q-38" value="" style="edgeStyle=orthogonalEdgeStyle;html=1;endArrow=block;elbow=vertical;startArrow=none;endFill=1;strokeColor=#545B64;rounded=0;exitX=1;exitY=0.47;exitDx=0;exitDy=0;exitPerimeter=0;entryX=-0.005;entryY=0.518;entryDx=0;entryDy=0;entryPerimeter=0;" parent="wAdAc6-QEUFjlLHtvM_q-1" source="wAdAc6-QEUFjlLHtvM_q-19" target="wAdAc6-QEUFjlLHtvM_q-36" edge="1">
          <mxGeometry width="100" relative="1" as="geometry">
            <mxPoint x="377.5" y="538.3650000000002" as="sourcePoint" />
            <mxPoint x="618" y="711" as="targetPoint" />
            <Array as="points" />
          </mxGeometry>
        </mxCell>
        <mxCell id="wpNzQlKAcKia0D_ap1BT-3" value="&lt;b&gt;&lt;font style=&quot;font-size: 21px;&quot;&gt;Guardduty Data Source&lt;/font&gt;&lt;/b&gt;" style="sketch=0;outlineConnect=0;gradientColor=none;html=1;whiteSpace=wrap;fontSize=12;fontStyle=0;shape=mxgraph.aws4.group;grIcon=mxgraph.aws4.group_availability_zone;strokeColor=#545B64;fillColor=none;verticalAlign=top;align=left;spacingLeft=30;fontColor=#545B64;dashed=1;" parent="wAdAc6-QEUFjlLHtvM_q-1" vertex="1">
          <mxGeometry x="658" y="881" width="330" height="470" as="geometry" />
        </mxCell>
        <mxCell id="wpNzQlKAcKia0D_ap1BT-10" value="" style="sketch=0;outlineConnect=0;fontColor=#232F3E;gradientColor=none;fillColor=#8C4FFF;strokeColor=none;dashed=0;verticalLabelPosition=bottom;verticalAlign=top;align=center;html=1;fontSize=12;fontStyle=0;aspect=fixed;pointerEvents=1;shape=mxgraph.aws4.flow_logs;" parent="wAdAc6-QEUFjlLHtvM_q-1" vertex="1">
          <mxGeometry x="778" y="971" width="90" height="90" as="geometry" />
        </mxCell>
        <mxCell id="wpNzQlKAcKia0D_ap1BT-12" value="" style="edgeStyle=orthogonalEdgeStyle;rounded=0;orthogonalLoop=1;jettySize=auto;html=1;" parent="wAdAc6-QEUFjlLHtvM_q-1" source="wpNzQlKAcKia0D_ap1BT-11" target="wpNzQlKAcKia0D_ap1BT-10" edge="1">
          <mxGeometry relative="1" as="geometry" />
        </mxCell>
        <mxCell id="wpNzQlKAcKia0D_ap1BT-11" value="&lt;font style=&quot;font-size: 20px;&quot;&gt;&lt;b&gt;VPC Flow Logs&lt;/b&gt;&lt;/font&gt;" style="text;strokeColor=none;align=center;fillColor=none;html=1;verticalAlign=middle;whiteSpace=wrap;rounded=0;" parent="wAdAc6-QEUFjlLHtvM_q-1" vertex="1">
          <mxGeometry x="728" y="1101" width="170" height="30" as="geometry" />
        </mxCell>
        <mxCell id="wpNzQlKAcKia0D_ap1BT-14" value="" style="sketch=0;points=[[0,0,0],[0.25,0,0],[0.5,0,0],[0.75,0,0],[1,0,0],[0,1,0],[0.25,1,0],[0.5,1,0],[0.75,1,0],[1,1,0],[0,0.25,0],[0,0.5,0],[0,0.75,0],[1,0.25,0],[1,0.5,0],[1,0.75,0]];points=[[0,0,0],[0.25,0,0],[0.5,0,0],[0.75,0,0],[1,0,0],[0,1,0],[0.25,1,0],[0.5,1,0],[0.75,1,0],[1,1,0],[0,0.25,0],[0,0.5,0],[0,0.75,0],[1,0.25,0],[1,0.5,0],[1,0.75,0]];outlineConnect=0;fontColor=#232F3E;fillColor=#E7157B;strokeColor=#ffffff;dashed=0;verticalLabelPosition=bottom;verticalAlign=top;align=center;html=1;fontSize=12;fontStyle=0;aspect=fixed;shape=mxgraph.aws4.resourceIcon;resIcon=mxgraph.aws4.cloudtrail;" parent="wAdAc6-QEUFjlLHtvM_q-1" vertex="1">
          <mxGeometry x="778" y="1161" width="100" height="100" as="geometry" />
        </mxCell>
        <mxCell id="wpNzQlKAcKia0D_ap1BT-15" value="&lt;span style=&quot;font-size: 20px;&quot;&gt;&lt;b&gt;AWS Cloudtrail&lt;/b&gt;&lt;/span&gt;" style="text;strokeColor=none;align=center;fillColor=none;html=1;verticalAlign=middle;whiteSpace=wrap;rounded=0;" parent="wAdAc6-QEUFjlLHtvM_q-1" vertex="1">
          <mxGeometry x="728" y="1301" width="170" height="30" as="geometry" />
        </mxCell>
        <mxCell id="wpNzQlKAcKia0D_ap1BT-20" value="" style="edgeStyle=orthogonalEdgeStyle;html=1;endArrow=block;elbow=vertical;startArrow=none;endFill=1;strokeColor=#545B64;rounded=0;entryX=1;entryY=0.5;entryDx=0;entryDy=0;entryPerimeter=0;" parent="wAdAc6-QEUFjlLHtvM_q-1" target="wpNzQlKAcKia0D_ap1BT-14" edge="1">
          <mxGeometry width="100" relative="1" as="geometry">
            <mxPoint x="1688" y="1261" as="sourcePoint" />
            <mxPoint x="1328" y="1081" as="targetPoint" />
          </mxGeometry>
        </mxCell>
        <mxCell id="wpNzQlKAcKia0D_ap1BT-21" value="" style="edgeStyle=orthogonalEdgeStyle;html=1;endArrow=none;elbow=vertical;startArrow=block;startFill=1;strokeColor=#545B64;rounded=0;" parent="wAdAc6-QEUFjlLHtvM_q-1" source="wpNzQlKAcKia0D_ap1BT-10" target="wAdAc6-QEUFjlLHtvM_q-3" edge="1">
          <mxGeometry width="100" relative="1" as="geometry">
            <mxPoint x="1228" y="831" as="sourcePoint" />
            <mxPoint x="1328" y="831" as="targetPoint" />
          </mxGeometry>
        </mxCell>
        <mxCell id="wpNzQlKAcKia0D_ap1BT-22" value="" style="edgeStyle=orthogonalEdgeStyle;html=1;endArrow=none;elbow=vertical;startArrow=block;startFill=1;strokeColor=#545B64;rounded=0;" parent="wAdAc6-QEUFjlLHtvM_q-1" source="wAdAc6-QEUFjlLHtvM_q-13" target="wpNzQlKAcKia0D_ap1BT-3" edge="1">
          <mxGeometry width="100" relative="1" as="geometry">
            <mxPoint x="1228" y="581" as="sourcePoint" />
            <mxPoint x="1328" y="581" as="targetPoint" />
            <Array as="points">
              <mxPoint x="599" y="1116" />
            </Array>
          </mxGeometry>
        </mxCell>
        <mxCell id="EtzaleCvmVlhLOoWNc1e-2" value="" style="edgeStyle=orthogonalEdgeStyle;html=1;endArrow=block;elbow=vertical;startArrow=none;endFill=1;strokeColor=#545B64;rounded=0;entryX=0;entryY=0.5;entryDx=0;entryDy=0;entryPerimeter=0;" edge="1" parent="wAdAc6-QEUFjlLHtvM_q-1" source="wpNzQlKAcKia0D_ap1BT-3" target="wAdAc6-QEUFjlLHtvM_q-34">
          <mxGeometry width="100" relative="1" as="geometry">
            <mxPoint x="1168" y="1501" as="sourcePoint" />
            <mxPoint x="1268" y="1501" as="targetPoint" />
            <Array as="points">
              <mxPoint x="2018" y="1330" />
              <mxPoint x="2018" y="1350" />
            </Array>
          </mxGeometry>
        </mxCell>
        <mxCell id="EtzaleCvmVlhLOoWNc1e-17" value="&lt;font style=&quot;font-size: 20px;&quot;&gt;Start&lt;/font&gt;" style="ellipse;whiteSpace=wrap;html=1;" vertex="1" parent="wAdAc6-QEUFjlLHtvM_q-1">
          <mxGeometry x="330" y="1728" width="80" height="60" as="geometry" />
        </mxCell>
        <mxCell id="EtzaleCvmVlhLOoWNc1e-18" value="&lt;font style=&quot;font-size: 20px;&quot;&gt;&amp;nbsp; HuntDGA&lt;/font&gt;" style="rounded=0;whiteSpace=wrap;html=1;align=left;" vertex="1" parent="wAdAc6-QEUFjlLHtvM_q-1">
          <mxGeometry x="460" y="1714" width="170" height="89" as="geometry" />
        </mxCell>
        <mxCell id="EtzaleCvmVlhLOoWNc1e-19" value="&lt;span style=&quot;font-size: 20px;&quot;&gt;HuntS3Access&lt;/span&gt;" style="rounded=0;whiteSpace=wrap;html=1;align=left;" vertex="1" parent="wAdAc6-QEUFjlLHtvM_q-1">
          <mxGeometry x="678" y="1711" width="200" height="89" as="geometry" />
        </mxCell>
        <mxCell id="EtzaleCvmVlhLOoWNc1e-21" value="&lt;font style=&quot;font-size: 20px;&quot;&gt;End&lt;/font&gt;" style="ellipse;whiteSpace=wrap;html=1;" vertex="1" parent="wAdAc6-QEUFjlLHtvM_q-1">
          <mxGeometry x="1728" y="1728" width="80" height="60" as="geometry" />
        </mxCell>
        <mxCell id="EtzaleCvmVlhLOoWNc1e-22" value="" style="edgeStyle=orthogonalEdgeStyle;html=1;endArrow=block;elbow=vertical;startArrow=none;endFill=1;strokeColor=#545B64;rounded=0;entryX=0;entryY=0.5;entryDx=0;entryDy=0;exitX=1;exitY=0.5;exitDx=0;exitDy=0;" edge="1" parent="wAdAc6-QEUFjlLHtvM_q-1" source="EtzaleCvmVlhLOoWNc1e-17" target="EtzaleCvmVlhLOoWNc1e-18">
          <mxGeometry width="100" relative="1" as="geometry">
            <mxPoint x="460" y="2022" as="sourcePoint" />
            <mxPoint x="560" y="2022" as="targetPoint" />
          </mxGeometry>
        </mxCell>
        <mxCell id="EtzaleCvmVlhLOoWNc1e-23" value="" style="edgeStyle=orthogonalEdgeStyle;html=1;endArrow=block;elbow=vertical;startArrow=none;endFill=1;strokeColor=#545B64;rounded=0;exitX=1;exitY=0.5;exitDx=0;exitDy=0;entryX=0;entryY=0.5;entryDx=0;entryDy=0;" edge="1" parent="wAdAc6-QEUFjlLHtvM_q-1" source="EtzaleCvmVlhLOoWNc1e-18" target="EtzaleCvmVlhLOoWNc1e-19">
          <mxGeometry width="100" relative="1" as="geometry">
            <mxPoint x="450" y="1932" as="sourcePoint" />
            <mxPoint x="550" y="1932" as="targetPoint" />
          </mxGeometry>
        </mxCell>
        <mxCell id="EtzaleCvmVlhLOoWNc1e-24" value="" style="edgeStyle=orthogonalEdgeStyle;html=1;endArrow=block;elbow=vertical;startArrow=none;endFill=1;strokeColor=#545B64;rounded=0;exitX=1;exitY=0.5;exitDx=0;exitDy=0;entryX=0;entryY=0.5;entryDx=0;entryDy=0;" edge="1" parent="wAdAc6-QEUFjlLHtvM_q-1" source="EtzaleCvmVlhLOoWNc1e-19" target="EtzaleCvmVlhLOoWNc1e-30">
          <mxGeometry width="100" relative="1" as="geometry">
            <mxPoint x="450" y="1932" as="sourcePoint" />
            <mxPoint x="1088" y="1756" as="targetPoint" />
          </mxGeometry>
        </mxCell>
        <mxCell id="EtzaleCvmVlhLOoWNc1e-25" value="" style="edgeStyle=orthogonalEdgeStyle;html=1;endArrow=block;elbow=vertical;startArrow=none;endFill=1;strokeColor=#545B64;rounded=0;exitX=1;exitY=0.5;exitDx=0;exitDy=0;entryX=0;entryY=0.5;entryDx=0;entryDy=0;" edge="1" parent="wAdAc6-QEUFjlLHtvM_q-1" target="EtzaleCvmVlhLOoWNc1e-21">
          <mxGeometry width="100" relative="1" as="geometry">
            <mxPoint x="1598.0000000000005" y="1758.5" as="sourcePoint" />
            <mxPoint x="550" y="1932" as="targetPoint" />
          </mxGeometry>
        </mxCell>
        <mxCell id="EtzaleCvmVlhLOoWNc1e-26" value="" style="sketch=0;outlineConnect=0;fontColor=#232F3E;gradientColor=none;fillColor=#ED7100;strokeColor=none;dashed=0;verticalLabelPosition=bottom;verticalAlign=top;align=center;html=1;fontSize=12;fontStyle=0;aspect=fixed;pointerEvents=1;shape=mxgraph.aws4.lambda_function;" vertex="1" parent="wAdAc6-QEUFjlLHtvM_q-1">
          <mxGeometry x="570" y="1734.5" width="48" height="48" as="geometry" />
        </mxCell>
        <mxCell id="EtzaleCvmVlhLOoWNc1e-27" value="" style="sketch=0;outlineConnect=0;fontColor=#232F3E;gradientColor=none;fillColor=#ED7100;strokeColor=none;dashed=0;verticalLabelPosition=bottom;verticalAlign=top;align=center;html=1;fontSize=12;fontStyle=0;aspect=fixed;pointerEvents=1;shape=mxgraph.aws4.lambda_function;" vertex="1" parent="wAdAc6-QEUFjlLHtvM_q-1">
          <mxGeometry x="818.0000000000002" y="1731" width="48" height="48" as="geometry" />
        </mxCell>
        <mxCell id="EtzaleCvmVlhLOoWNc1e-29" value="" style="verticalLabelPosition=bottom;shadow=0;dashed=0;align=center;html=1;verticalAlign=top;strokeWidth=1;shape=mxgraph.mockup.markup.line;strokeColor=#999999;direction=north;" vertex="1" parent="wAdAc6-QEUFjlLHtvM_q-1">
          <mxGeometry x="960" y="1702" width="20" height="10" as="geometry" />
        </mxCell>
        <mxCell id="EtzaleCvmVlhLOoWNc1e-30" value="&lt;span style=&quot;line-height: 107%;&quot; lang=&quot;VI&quot;&gt;&lt;font face=&quot;Helvetica&quot; style=&quot;font-size: 20px;&quot;&gt;HuntPrivilegeEscalation&lt;/font&gt;&lt;/span&gt;" style="rounded=0;whiteSpace=wrap;html=1;align=left;" vertex="1" parent="wAdAc6-QEUFjlLHtvM_q-1">
          <mxGeometry x="928" y="1711" width="280" height="89" as="geometry" />
        </mxCell>
        <mxCell id="EtzaleCvmVlhLOoWNc1e-31" value="" style="sketch=0;outlineConnect=0;fontColor=#232F3E;gradientColor=none;fillColor=#ED7100;strokeColor=none;dashed=0;verticalLabelPosition=bottom;verticalAlign=top;align=center;html=1;fontSize=12;fontStyle=0;aspect=fixed;pointerEvents=1;shape=mxgraph.aws4.lambda_function;" vertex="1" parent="wAdAc6-QEUFjlLHtvM_q-1">
          <mxGeometry x="1148.0000000000002" y="1731" width="48" height="48" as="geometry" />
        </mxCell>
        <mxCell id="EtzaleCvmVlhLOoWNc1e-33" value="&lt;span style=&quot;font-size: 20px;&quot;&gt;HuntDDoS&lt;/span&gt;" style="rounded=0;whiteSpace=wrap;html=1;align=left;" vertex="1" parent="wAdAc6-QEUFjlLHtvM_q-1">
          <mxGeometry x="1248" y="1711" width="180" height="89" as="geometry" />
        </mxCell>
        <mxCell id="EtzaleCvmVlhLOoWNc1e-34" value="" style="sketch=0;outlineConnect=0;fontColor=#232F3E;gradientColor=none;fillColor=#ED7100;strokeColor=none;dashed=0;verticalLabelPosition=bottom;verticalAlign=top;align=center;html=1;fontSize=12;fontStyle=0;aspect=fixed;pointerEvents=1;shape=mxgraph.aws4.lambda_function;" vertex="1" parent="wAdAc6-QEUFjlLHtvM_q-1">
          <mxGeometry x="1358.0000000000002" y="1731" width="48" height="48" as="geometry" />
        </mxCell>
        <mxCell id="EtzaleCvmVlhLOoWNc1e-35" value="" style="edgeStyle=orthogonalEdgeStyle;html=1;endArrow=block;elbow=vertical;startArrow=none;endFill=1;strokeColor=#545B64;rounded=0;exitX=1;exitY=0.5;exitDx=0;exitDy=0;entryX=0;entryY=0.5;entryDx=0;entryDy=0;" edge="1" parent="wAdAc6-QEUFjlLHtvM_q-1" source="EtzaleCvmVlhLOoWNc1e-30" target="EtzaleCvmVlhLOoWNc1e-33">
          <mxGeometry width="100" relative="1" as="geometry">
            <mxPoint x="1218" y="1971" as="sourcePoint" />
            <mxPoint x="1268" y="1971" as="targetPoint" />
          </mxGeometry>
        </mxCell>
        <mxCell id="EtzaleCvmVlhLOoWNc1e-36" value="&lt;span style=&quot;font-size: 20px;&quot;&gt;HuntMalware&lt;/span&gt;" style="rounded=0;whiteSpace=wrap;html=1;align=left;" vertex="1" parent="wAdAc6-QEUFjlLHtvM_q-1">
          <mxGeometry x="1478" y="1711" width="200" height="89" as="geometry" />
        </mxCell>
        <mxCell id="EtzaleCvmVlhLOoWNc1e-37" value="" style="sketch=0;outlineConnect=0;fontColor=#232F3E;gradientColor=none;fillColor=#ED7100;strokeColor=none;dashed=0;verticalLabelPosition=bottom;verticalAlign=top;align=center;html=1;fontSize=12;fontStyle=0;aspect=fixed;pointerEvents=1;shape=mxgraph.aws4.lambda_function;" vertex="1" parent="wAdAc6-QEUFjlLHtvM_q-1">
          <mxGeometry x="1600" y="1731" width="48" height="48" as="geometry" />
        </mxCell>
        <mxCell id="EtzaleCvmVlhLOoWNc1e-38" value="" style="edgeStyle=orthogonalEdgeStyle;html=1;endArrow=block;elbow=vertical;startArrow=none;endFill=1;strokeColor=#545B64;rounded=0;entryX=0;entryY=0.5;entryDx=0;entryDy=0;" edge="1" parent="wAdAc6-QEUFjlLHtvM_q-1" target="EtzaleCvmVlhLOoWNc1e-36">
          <mxGeometry width="100" relative="1" as="geometry">
            <mxPoint x="1428" y="1756" as="sourcePoint" />
            <mxPoint x="1648" y="2021" as="targetPoint" />
          </mxGeometry>
        </mxCell>
        <mxCell id="EtzaleCvmVlhLOoWNc1e-39" value="" style="sketch=0;points=[[0,0,0],[0.25,0,0],[0.5,0,0],[0.75,0,0],[1,0,0],[0,1,0],[0.25,1,0],[0.5,1,0],[0.75,1,0],[1,1,0],[0,0.25,0],[0,0.5,0],[0,0.75,0],[1,0.25,0],[1,0.5,0],[1,0.75,0]];outlineConnect=0;fontColor=#232F3E;fillColor=#E7157B;strokeColor=#ffffff;dashed=0;verticalLabelPosition=bottom;verticalAlign=top;align=center;html=1;fontSize=12;fontStyle=0;aspect=fixed;shape=mxgraph.aws4.resourceIcon;resIcon=mxgraph.aws4.sns;" vertex="1" parent="wAdAc6-QEUFjlLHtvM_q-1">
          <mxGeometry x="2190" y="1730" width="120" height="120" as="geometry" />
        </mxCell>
        <mxCell id="EtzaleCvmVlhLOoWNc1e-41" value="&lt;span style=&quot;font-size: 20px;&quot;&gt;&lt;b&gt;SNS&lt;/b&gt;&lt;/span&gt;" style="text;strokeColor=none;align=center;fillColor=none;html=1;verticalAlign=middle;whiteSpace=wrap;rounded=0;" vertex="1" parent="wAdAc6-QEUFjlLHtvM_q-1">
          <mxGeometry x="2160" y="1870" width="170" height="30" as="geometry" />
        </mxCell>
        <mxCell id="EtzaleCvmVlhLOoWNc1e-42" style="edgeStyle=orthogonalEdgeStyle;rounded=0;orthogonalLoop=1;jettySize=auto;html=1;exitX=0.5;exitY=1;exitDx=0;exitDy=0;" edge="1" parent="wAdAc6-QEUFjlLHtvM_q-1" source="EtzaleCvmVlhLOoWNc1e-41" target="EtzaleCvmVlhLOoWNc1e-41">
          <mxGeometry relative="1" as="geometry" />
        </mxCell>
        <mxCell id="EtzaleCvmVlhLOoWNc1e-43" value="" style="sketch=0;points=[[0,0,0],[0.25,0,0],[0.5,0,0],[0.75,0,0],[1,0,0],[0,1,0],[0.25,1,0],[0.5,1,0],[0.75,1,0],[1,1,0],[0,0.25,0],[0,0.5,0],[0,0.75,0],[1,0.25,0],[1,0.5,0],[1,0.75,0]];outlineConnect=0;fontColor=#232F3E;fillColor=#8C4FFF;strokeColor=#ffffff;dashed=0;verticalLabelPosition=bottom;verticalAlign=top;align=center;html=1;fontSize=12;fontStyle=0;aspect=fixed;shape=mxgraph.aws4.resourceIcon;resIcon=mxgraph.aws4.athena;" vertex="1" parent="wAdAc6-QEUFjlLHtvM_q-1">
          <mxGeometry x="1490" y="1410" width="110" height="110" as="geometry" />
        </mxCell>
        <mxCell id="EtzaleCvmVlhLOoWNc1e-44" value="&lt;span style=&quot;font-size: 20px;&quot;&gt;&lt;b&gt;AWS Athena&lt;/b&gt;&lt;/span&gt;" style="text;strokeColor=none;align=center;fillColor=none;html=1;verticalAlign=middle;whiteSpace=wrap;rounded=0;" vertex="1" parent="wAdAc6-QEUFjlLHtvM_q-1">
          <mxGeometry x="1460" y="1550" width="170" height="30" as="geometry" />
        </mxCell>
        <mxCell id="EtzaleCvmVlhLOoWNc1e-47" value="" style="edgeStyle=orthogonalEdgeStyle;html=1;endArrow=block;elbow=vertical;startArrow=none;endFill=1;strokeColor=#545B64;rounded=0;exitX=1;exitY=0.5;exitDx=0;exitDy=0;exitPerimeter=0;entryX=0.5;entryY=1;entryDx=0;entryDy=0;entryPerimeter=0;" edge="1" parent="wAdAc6-QEUFjlLHtvM_q-1" source="EtzaleCvmVlhLOoWNc1e-43" target="wAdAc6-QEUFjlLHtvM_q-34">
          <mxGeometry width="100" relative="1" as="geometry">
            <mxPoint x="1770" y="1490" as="sourcePoint" />
            <mxPoint x="1870" y="1490" as="targetPoint" />
          </mxGeometry>
        </mxCell>
        <mxCell id="EtzaleCvmVlhLOoWNc1e-48" value="" style="sketch=0;points=[[0,0,0],[0.25,0,0],[0.5,0,0],[0.75,0,0],[1,0,0],[0,1,0],[0.25,1,0],[0.5,1,0],[0.75,1,0],[1,1,0],[0,0.25,0],[0,0.5,0],[0,0.75,0],[1,0.25,0],[1,0.5,0],[1,0.75,0]];points=[[0,0,0],[0.25,0,0],[0.5,0,0],[0.75,0,0],[1,0,0],[0,1,0],[0.25,1,0],[0.5,1,0],[0.75,1,0],[1,1,0],[0,0.25,0],[0,0.5,0],[0,0.75,0],[1,0.25,0],[1,0.5,0],[1,0.75,0]];outlineConnect=0;fontColor=#232F3E;fillColor=#E7157B;strokeColor=#ffffff;dashed=0;verticalLabelPosition=bottom;verticalAlign=top;align=center;html=1;fontSize=12;fontStyle=0;aspect=fixed;shape=mxgraph.aws4.resourceIcon;resIcon=mxgraph.aws4.cloudwatch_2;" vertex="1" parent="wAdAc6-QEUFjlLHtvM_q-1">
          <mxGeometry x="810" y="400" width="110" height="110" as="geometry" />
        </mxCell>
        <mxCell id="EtzaleCvmVlhLOoWNc1e-49" value="&lt;span style=&quot;font-size: 20px;&quot;&gt;&lt;b&gt;AWS CloudWatch&lt;/b&gt;&lt;/span&gt;" style="text;strokeColor=none;align=center;fillColor=none;html=1;verticalAlign=middle;whiteSpace=wrap;rounded=0;" vertex="1" parent="wAdAc6-QEUFjlLHtvM_q-1">
          <mxGeometry x="780" y="530" width="170" height="30" as="geometry" />
        </mxCell>
        <mxCell id="EtzaleCvmVlhLOoWNc1e-50" value="" style="edgeStyle=orthogonalEdgeStyle;html=1;endArrow=none;elbow=vertical;startArrow=block;startFill=1;strokeColor=#545B64;rounded=0;exitX=0.5;exitY=0;exitDx=0;exitDy=0;exitPerimeter=0;" edge="1" parent="wAdAc6-QEUFjlLHtvM_q-1" source="EtzaleCvmVlhLOoWNc1e-48" target="wAdAc6-QEUFjlLHtvM_q-16">
          <mxGeometry width="100" relative="1" as="geometry">
            <mxPoint x="930" y="400" as="sourcePoint" />
            <mxPoint x="1030" y="400" as="targetPoint" />
          </mxGeometry>
        </mxCell>
        <mxCell id="EtzaleCvmVlhLOoWNc1e-16" value="&lt;div&gt;&lt;b&gt;AWS Lambda &amp;amp; SNS Workflow&lt;/b&gt;&lt;/div&gt;" style="sketch=0;outlineConnect=0;gradientColor=none;html=1;whiteSpace=wrap;fontSize=12;fontStyle=0;shape=mxgraph.aws4.group;grIcon=mxgraph.aws4.group_aws_step_functions_workflow;strokeColor=#545B64;fillColor=none;verticalAlign=top;align=left;spacingLeft=30;fontColor=#545B64;dashed=0;" vertex="1" parent="wAdAc6-QEUFjlLHtvM_q-1">
          <mxGeometry x="300" y="1650" width="1580" height="230" as="geometry" />
        </mxCell>
        <mxCell id="EtzaleCvmVlhLOoWNc1e-40" value="" style="edgeStyle=orthogonalEdgeStyle;html=1;endArrow=block;elbow=vertical;startArrow=none;endFill=1;strokeColor=#545B64;rounded=0;entryX=0;entryY=0.5;entryDx=0;entryDy=0;entryPerimeter=0;" edge="1" parent="wAdAc6-QEUFjlLHtvM_q-1" source="EtzaleCvmVlhLOoWNc1e-16" target="EtzaleCvmVlhLOoWNc1e-39">
          <mxGeometry width="100" relative="1" as="geometry">
            <mxPoint x="1940" y="1750" as="sourcePoint" />
            <mxPoint x="2040" y="1750" as="targetPoint" />
          </mxGeometry>
        </mxCell>
        <mxCell id="EtzaleCvmVlhLOoWNc1e-46" value="" style="edgeStyle=orthogonalEdgeStyle;html=1;endArrow=block;elbow=vertical;startArrow=block;startFill=1;endFill=1;strokeColor=#545B64;rounded=0;entryX=0;entryY=0.5;entryDx=0;entryDy=0;entryPerimeter=0;" edge="1" parent="wAdAc6-QEUFjlLHtvM_q-1" source="EtzaleCvmVlhLOoWNc1e-16" target="EtzaleCvmVlhLOoWNc1e-43">
          <mxGeometry width="100" relative="1" as="geometry">
            <mxPoint x="1010" y="1470" as="sourcePoint" />
            <mxPoint x="1110" y="1470" as="targetPoint" />
          </mxGeometry>
        </mxCell>
        <mxCell id="wAdAc6-QEUFjlLHtvM_q-2" value="AWS Cloud" style="sketch=0;outlineConnect=0;gradientColor=none;html=1;whiteSpace=wrap;fontSize=12;fontStyle=0;shape=mxgraph.aws4.group;grIcon=mxgraph.aws4.group_aws_cloud;strokeColor=#858B94;fillColor=none;verticalAlign=top;align=left;spacingLeft=30;fontColor=#858B94;dashed=0;" parent="wAdAc6-QEUFjlLHtvM_q-1" vertex="1">
          <mxGeometry x="-90" y="-160" width="2780" height="2160" as="geometry" />
        </mxCell>
      </root>
    </mxGraphModel>
  </diagram>
</mxfile>
